<?xml version="1.0" encoding="UTF-8"?>
<svg width="238px" height="238px" viewBox="0 0 238 238" version="1.1" xmlns="http://www.w3.org/2000/svg" xmlns:xlink="http://www.w3.org/1999/xlink">
    <!-- Generator: Sketch 52.2 (67145) - http://www.bohemiancoding.com/sketch -->
    <title>Artboard</title>
    <desc>Created with Sketch.</desc>
    <g id="Artboard" stroke="none" stroke-width="1" fill="none" fill-rule="evenodd">
        <g id="logo" fill-rule="nonzero">
            <circle id="Oval" fill="#FFCE00" cx="119" cy="119" r="119"></circle>
            <g id="Group" transform="translate(24.000000, 38.000000)">
                <g transform="translate(0.074281, 0.202013)" id="Shape">
                    <path d="M11.1421821,116.899789 C12.6913425,114.96338 14.2339624,113.03516 15.7700419,111.11513 C19.1337195,106.927463 22.4637603,102.731606 25.8610747,98.5739684 C26.309565,98.0279883 26.0572892,97.5502558 26.0376678,97.0397644 C25.9031207,93.7966429 25.656451,90.5562513 25.6368295,87.3131298 C25.6172081,83.9253236 25.6732694,80.5238679 25.9423636,77.1469813 C26.2675191,73.0712402 26.7384339,68.998229 27.3438959,64.9525168 C27.9325395,61.0787883 28.7958834,57.2460084 29.5190741,53.3941191 C29.7377131,52.2257218 29.3817239,51.1364916 28.8911876,50.0936697 C27.4896553,47.1126186 25.1939453,44.8468014 22.6431565,42.6273925 C22.3320163,42.9604403 22.0825435,43.2689191 21.7798125,43.544639 C20.8856349,44.3854483 19.9830481,45.2126081 19.0776582,46.0424977 C17.1519528,47.814203 14.7693478,48.4147811 12.2157559,48.5976844 C8.21017644,48.8843239 4.98665206,47.2955219 2.01260044,44.830422 C0.330761632,43.4272533 -0.00280306468,41.7592842 0.210229851,39.8101354 C0.975466507,32.8461599 2.94602097,26.1606342 5.02589496,19.4832981 C6.13310551,15.9344278 7.32160493,12.4101266 9.08192955,9.10967716 C9.46789403,8.40128995 9.93832266,7.73972178 10.4834619,7.13868917 C11.0722763,6.48674829 11.9483377,6.15218204 12.8352332,6.24055199 C16.6950532,6.46167391 20.5548733,6.71009483 24.4202995,6.86842905 C28.1175418,7.01857356 31.8203902,7.08409117 35.5204356,7.16052837 C38.833658,7.22877588 42.1468805,7.25880478 45.4601029,7.30794299 C45.6056282,7.30932489 45.7508493,7.32118681 45.8945779,7.34343169 C46.9494971,7.5356935 48.0384324,7.27826829 48.8854479,6.63638752 C52.7340557,3.93378627 56.9022129,1.84268267 61.5665125,0.797130875 C64.2518485,0.196552818 66.9680182,0.177443517 69.6954001,0.376726235 C75.1165272,0.775291673 80.1284068,2.63435375 85.1430895,4.48795602 C88.0891105,5.57991612 91.0295253,6.63638752 94.1689578,7.16052837 C98.069005,7.85221874 102.092985,7.36544614 105.700766,5.76554934 C109.975439,3.89283777 114.339811,2.27946671 118.91161,1.22572522 C122.200332,0.439054622 125.590205,0.129060458 128.971809,0.305748829 C131.696388,0.464083044 134.14066,1.49052554 136.540083,2.66438265 C139.361851,4.06014082 142.001564,5.78043108 144.40268,7.78840543 C144.681143,8.00274514 145.029088,8.11311765 145.383752,8.09961406 C148.245682,7.90852104 151.104807,7.66010012 153.966737,7.4526277 C156.343735,7.28064398 158.731946,7.13049947 161.103339,6.98308486 C164.161483,6.79472174 167.219626,6.60362872 170.280573,6.43710481 C172.346432,6.3333686 174.417896,6.26239119 176.486558,6.23509219 C178.771056,6.20506328 181.058357,6.21871278 183.345657,6.25693139 C185.840385,6.29787989 186.89714,6.94213635 187.597906,9.25982167 C188.660268,12.7650136 189.579673,16.3166138 190.487866,19.8654842 C191.962278,25.6364933 193.290931,31.4402613 195.337168,37.0638558 C195.740809,38.1776551 196.29021,39.247776 196.612562,40.3806846 C197.652499,44.0469406 195.827704,46.965204 191.883792,47.9998362 C189.383459,48.6550123 186.838276,48.6195236 184.284684,48.3629129 C183.342854,48.2700963 182.409434,48.1063023 181.481619,47.9916465 C179.833417,47.7896339 178.541205,46.9624741 177.391948,45.8514047 C175.939961,44.4455061 174.44873,43.0778261 173.030379,41.6391686 C172.551055,41.1505165 172.110974,41.109568 171.662484,41.491754 C170.311407,42.641042 168.808964,43.6756742 167.718572,45.0406243 C165.666728,47.5876213 163.867161,50.3257112 161.952668,52.9791743 C161.560239,53.5251543 161.537814,54.0711344 161.630315,54.7208506 C161.986305,57.2050599 162.277823,59.6974588 162.572145,62.1898577 C162.866467,64.6822567 163.152379,67.1746556 163.413064,69.6697845 C163.642916,71.9083027 163.858752,74.1495508 164.015723,76.3935288 C164.243706,79.6075314 164.438986,82.8233539 164.601564,86.0409963 C164.691262,87.7935923 164.671641,89.5489181 164.747323,91.3015141 C164.786382,91.6482915 164.918863,91.9788537 165.131343,92.2597091 C170.32075,99.677758 175.522304,107.087617 180.736004,114.489287 C181.220934,115.174492 181.237753,115.581247 180.691155,116.291021 C172.765957,126.471729 164.862249,136.668816 156.980031,146.882283 C156.725462,147.177805 156.368394,147.372078 155.976534,147.428263 C151.965348,147.851398 147.954163,148.318211 143.923356,148.599391 C139.800048,148.88876 135.665527,149.014335 131.531007,149.145371 C130.582959,149.137233 129.638188,149.03571 128.711124,148.842352 C127.208681,148.591201 126.269654,147.540189 125.383886,146.456419 C125.017996,146.043732 124.720985,145.577601 124.503724,145.075089 C124.192584,144.256119 123.648789,144.048647 122.791051,144.043187 C119.503056,144.024078 116.215061,143.936721 112.927067,143.860284 C109.299901,143.775657 105.672735,143.671921 102.048373,143.587294 L90.8024771,143.314304 C87.1510182,143.219667 83.4995593,143.12867 79.8481004,143.041314 C76.8067752,142.959417 73.76545,142.87752 70.7241248,142.768324 C70.3130183,142.710466 69.9117258,142.922529 69.7374461,143.289735 C68.868496,144.769341 67.9631061,146.225287 67.0212764,147.657575 C66.8257116,147.932926 66.5207934,148.116051 66.180357,148.162607 C62.191596,148.34551 58.205638,148.550252 54.2140739,148.6185 C50.3962998,148.684017 46.5813288,148.588471 42.8168129,147.777691 C40.7453481,147.329987 39.1391921,146.180699 37.7208413,144.7748 C33.4741984,140.524346 29.2219492,136.276621 25.0650043,131.944269 C21.1603352,127.871258 17.3705918,123.689051 13.5359993,119.553252 C12.7343228,118.682414 11.9578739,117.803386 11.1421821,116.899789 Z M131.040471,144.51546 L132.747537,144.51546 C139.70194,144.49908 146.597479,143.721059 153.490216,143.000365 C153.815278,142.93902 154.1057,142.763094 154.305907,142.506253 C161.175285,133.646817 168.03999,124.782831 174.900024,115.914295 C175.286846,115.414723 175.323286,115.095325 174.947676,114.579374 C167.558797,104.246701 160.279238,93.8321316 152.803465,83.5704366 C145.212766,73.1667867 137.364184,62.94877 128.677487,53.3722799 C126.241624,50.6860581 123.732881,48.0571641 120.775648,45.8950831 C120.354846,45.6270562 119.890432,45.4304475 119.402146,45.3136144 C118.000614,44.9013994 116.621506,45.1934987 115.211564,45.2808556 C110.446354,45.5756848 105.681144,45.8268356 100.915934,45.9715203 C97.6307427,46.0670668 94.3371417,45.9715203 91.0463437,45.9196522 C85.6868841,45.8304755 80.3283588,45.7167296 74.9707678,45.5784147 C74.5853921,45.5450296 74.2128446,45.7227605 74.0037105,46.0397678 C72.9133183,47.4374768 71.8005017,48.8188063 70.6904881,50.2028657 L44.4285751,82.9780482 L20.1988841,113.230803 C19.2738727,114.384641 18.3507301,115.542118 17.4294562,116.703236 C17.6004431,116.902519 17.7097626,117.049933 17.8471128,117.189158 C21.8891321,121.53243 25.8806962,125.924839 29.9871859,130.202593 C33.6956405,134.068132 37.5274299,137.821744 41.3171733,141.610846 C42.1384713,142.429816 43.0550734,143.14232 44.2856188,143.303384 C45.5161642,143.464448 46.6934514,143.715599 47.9015722,143.753818 C51.0895911,143.857554 54.2804131,143.907602 57.4740381,143.903962 C59.5118661,143.903962 61.5468911,143.756548 63.6407804,143.674651 L63.6407804,142.87752 C63.6407804,140.906532 63.6211589,138.935544 63.6407804,136.964556 C63.6744172,126.517227 63.6884325,116.072629 63.7613122,105.625301 C63.8005551,100.026275 63.9126777,94.4327097 64.0416186,88.8282245 C64.1518725,84.489503 64.3172533,80.1526014 64.5377611,75.8175198 C64.6265159,74.2092449 64.8203194,72.6081047 65.1179955,71.023815 C65.4823939,69.025528 67.0801408,67.8898895 69.0170584,68.2939147 C69.8721688,68.4722018 70.66397,68.8667135 71.3127684,69.4377429 C72.6638456,70.6907671 74.0373473,71.9874698 75.0884965,73.4752654 C77.8915612,77.4581899 80.5572757,81.5421207 83.2342025,85.6124019 C83.5677672,86.1201634 83.8901196,86.267578 84.4591417,86.1884109 C85.3252634,86.0561887 86.1984433,85.9723348 87.0744011,85.9372601 C90.5305798,85.8499033 93.9923647,85.6642701 97.4457404,85.7734661 C101.370031,85.9017714 105.31114,86.2839574 109.241037,86.6088155 C110.956512,86.7507704 112.660775,87.0319501 114.401479,87.2503421 L114.998531,85.93999 C117.06439,81.4165453 119.096612,76.8767211 121.742705,72.6344561 C122.357993,71.6136141 123.12181,70.6849133 124.010384,69.8772569 C125.532448,68.5477954 127.589898,69.0582868 128.371953,70.8982396 C128.77387,71.81172 129.041853,72.7757191 129.168023,73.7619049 C129.745455,78.9923938 130.359326,84.2201528 130.748952,89.4642912 C131.130169,94.5937738 131.309565,99.7423657 131.483355,104.885498 C131.63472,109.580926 131.696388,114.281814 131.710403,118.979973 C131.710403,123.465199 131.651539,127.950425 131.567447,132.435651 C131.519795,134.949889 131.385247,137.461398 131.28714,139.972906 C131.214261,141.444322 131.127366,142.910278 131.040471,144.51546 Z M126.477081,139.517012 C126.505112,139.170315 126.535946,138.916434 126.544355,138.659824 C126.634053,136.077338 126.791024,133.492123 126.796631,130.909637 C126.796631,123.538906 126.796631,116.192745 126.718145,108.835663 C126.662084,104.306759 126.412611,99.7805843 126.28367,95.2516798 C126.266851,94.7056997 126.076243,94.4600087 125.546464,94.3453529 C123.304012,93.8648904 121.098,93.3243702 118.863958,92.8712067 C110.948788,91.2602001 102.888437,90.4216148 94.8024504,90.3678882 C89.7838737,90.3234085 84.7708404,90.7043012 79.8200697,91.5062566 C76.269261,92.0814108 72.7711721,92.9312809 69.3590323,94.0477937 C68.8937236,94.2006682 68.6666754,94.3917612 68.7283428,94.8940628 C68.729342,95.2015593 68.7106184,95.5088163 68.6722815,95.8140392 C68.607811,101.058178 68.5181129,106.305046 68.4956884,111.549184 C68.4620516,120.074663 68.47887,128.600141 68.4732639,137.12562 L68.4732639,138.029217 L126.477081,139.517012 Z M57.5048718,58.9849548 C57.2610052,58.8675691 57.0844121,58.7965917 56.9218344,58.7119648 C55.1250699,57.6773326 53.221789,56.7791954 51.5567686,55.5753094 C48.4313515,53.314952 46.1328384,50.4267175 45.2863129,46.610317 C44.6444111,43.7193526 45.4348753,41.7592842 47.9856642,40.1404534 C48.7389446,39.6622982 49.5333077,39.2485391 50.35986,38.9038086 C54.6681704,37.1102641 59.2315597,36.2612651 63.8341919,35.6279282 C67.4781759,35.1365462 71.12216,34.8253376 74.7857656,34.4267721 C79.5257479,33.9080911 84.2657303,34.0909944 89.0085157,34.3885535 C90.7716434,34.5004794 92.5403772,34.5468877 94.3707784,34.6287848 L94.6510849,11.9706126 C90.14656,11.4000635 86.0428733,9.78669242 81.8887314,8.30162668 C79.2454414,7.36254099 76.5629086,6.48897291 73.8495419,5.77100914 C70.4858643,4.88106166 66.9960488,4.50979522 63.5735068,5.20591979 C56.0472782,6.73466393 50.0178861,10.755807 45.07328,16.3821314 C44.5658202,16.9549573 44.1842341,17.6229553 43.9520541,18.3449297 C43.4418963,20.0210885 43.1419684,21.757305 42.6430229,23.4361937 C39.0719185,35.3986166 35.5036172,47.3583097 33.1350275,59.6073721 C32.0138017,65.3401626 31.0691689,71.1002522 30.772044,76.9258593 C30.5225713,81.8396798 30.5421927,86.7917189 30.4468885,91.7246486 C30.4468885,91.9812592 30.4805253,92.2405998 30.5141621,92.6964931 L57.5048718,58.9849548 Z M99.1920497,34.5359681 C99.4162949,34.5550774 99.5115991,34.568727 99.6097063,34.568727 C104.40575,34.5223186 109.204597,34.4349618 114.00064,34.4404216 C119.749834,34.4380997 125.491918,34.8340242 131.183427,35.6251983 C135.186203,36.1875578 139.138524,36.9737691 142.905843,38.453375 C145.504284,39.4743577 147.95136,40.7492211 149.706078,42.9604403 C152.08588,45.9387615 151.752315,49.1709634 148.851143,51.6770119 C146.328385,53.8609321 143.334712,55.2968596 140.318615,56.6863788 C139.758002,56.9429895 139.197389,57.1804908 138.762914,57.3688539 L159.345818,84.0672784 L159.345818,83.614115 C158.818841,77.8540254 158.359139,72.0830163 157.736859,66.3311164 C157.176246,61.1934442 156.593208,56.053042 155.755092,50.9563182 C154.695533,44.5055639 153.431351,38.0848385 152.130729,31.6750327 C151.570116,28.8959942 150.964654,26.0705475 149.910702,23.4443834 C146.914226,15.9781062 141.630449,10.4391386 134.255586,6.78926194 C131.867375,5.60448523 129.406284,4.82373375 126.718145,4.89744106 C122.667716,5.02574637 118.771456,5.91842376 114.973304,7.23150578 C112.935476,7.93582005 110.906057,8.68654262 108.943912,9.5382715 C105.925011,10.8404339 102.84164,11.8614166 99.46675,12.1125674 L99.1920497,34.5359681 Z M151.373902,12.3691781 C153.207106,14.3101371 154.914172,16.1309806 156.632451,17.927255 C161.36963,22.8683745 166.075976,27.834063 170.869217,32.7205845 C174.199257,36.1165804 177.647027,39.4033803 181.055554,42.722939 C181.314335,43.0041074 181.656013,43.2005213 182.033823,43.2852985 C183.995968,43.5091503 185.958114,43.7657609 187.903441,43.8012496 C189.024666,43.8203589 190.159908,43.5282596 191.247497,43.2115912 C192.088416,42.9795496 192.206145,42.6000935 191.97349,41.7838533 C191.805878,41.2410371 191.609398,40.7070758 191.384847,40.1841318 C189.484369,35.4805136 188.242611,30.5885324 186.981232,25.7020109 C185.787127,21.0611805 184.581809,16.4367294 183.426946,11.7931691 C183.244747,11.0642857 182.866333,10.8595432 182.171173,10.8704628 C180.150164,10.9032216 178.129154,10.8868422 176.110947,10.9496299 C173.16773,11.0397166 170.224512,11.1489126 167.284097,11.3127067 C163.031848,11.5529379 158.785205,11.8586867 154.535759,12.1316767 C153.532261,12.1944644 152.531567,12.2790914 151.373902,12.3691781 Z M39.7278357,11.9842621 C38.8869162,11.9433136 38.2197869,11.8914455 37.5386421,11.8750661 C33.2779838,11.7740598 29.0173255,11.7112721 24.7566672,11.577507 C21.4238233,11.4737708 18.0937825,11.304517 14.7637416,11.1352631 C13.4238767,11.0670156 13.4210737,11.0369867 12.8800822,12.2135737 C12.6698523,12.6667372 12.4596225,13.1199006 12.2774233,13.5785239 C9.07593884,21.5901406 6.71951481,29.8981267 5.24453401,38.3742079 C4.77081608,41.1614361 4.9277877,41.4426158 7.43933365,42.8949227 C10.3741424,44.5929207 14.1078245,44.2817121 16.5268693,41.9503772 C18.4890146,40.0394471 20.3782802,38.0493498 22.1329987,35.9691658 C26.9598761,30.2773237 31.2625803,24.2032957 35.5232386,18.1074284 C36.927574,16.1118713 38.2842573,14.1053946 39.7250326,11.9842621 L39.7278357,11.9842621 Z M168.733281,37.413283 L155.334632,23.5262804 C157.638751,31.063535 159.085133,38.726365 160.39977,46.4574426 C161.720013,44.8195024 162.922528,43.1815623 164.287621,41.6773872 C165.652713,40.1732122 167.21402,38.8546704 168.730478,37.413283 L168.733281,37.413283 Z M68.7759949,89.1612723 L78.4129312,86.8654262 C75.7107769,82.5412642 73.0030164,78.2143723 69.6365357,74.3269943 L69.4038814,74.3734026 L68.7759949,89.1612723 Z M37.3816705,23.9958233 L26.0096371,39.0512232 L31.4756132,44.7621745 L37.3816705,23.9958233 Z M126.006166,89.5816769 L124.884941,77.1033028 L124.5738,77.0623543 L119.239568,88.0856916 L126.006166,89.5816769 Z" fill="#003A7E"></path>
                    <g transform="translate(4.765210, 4.640830)" fill="#FFFFFF">
                        <path d="M126.275261,139.874629 C126.359353,138.269448 126.449051,136.803492 126.510718,135.337535 C126.620038,132.826027 126.754585,130.314519 126.791024,127.800281 C126.875116,123.315054 126.947996,118.829828 126.933981,114.344602 C126.919965,109.646444 126.861101,104.945556 126.706933,100.250127 C126.538749,95.106995 126.356549,89.9611331 125.97253,84.8289206 C125.582904,79.5847822 124.969032,74.3542933 124.391601,69.1265343 C124.26543,68.1403485 123.997448,67.1763493 123.595531,66.2628689 C122.813476,64.4201863 120.753223,63.9124248 119.233962,65.2418862 C118.345388,66.0495427 117.581571,66.9782435 116.966283,67.9990855 C114.32019,72.2386206 112.287968,76.7811746 110.222109,81.3046193 L109.625056,82.6149715 C107.884353,82.3938495 106.18009,82.1153997 104.464614,81.9734449 C100.540324,81.6458569 96.6160332,81.2664007 92.6693182,81.1380954 C89.2187456,81.0261695 85.7569607,81.2172625 82.2979789,81.3018894 C81.4220211,81.3369642 80.5488412,81.4208181 79.6827195,81.5530403 C79.1221066,81.6322074 78.791345,81.4847928 78.4577803,80.9770313 C75.7808535,76.90675 73.1319574,72.8228192 70.3120743,68.8398948 C69.2609251,67.3520991 67.8874234,66.0553965 66.5363462,64.8023723 C65.8875477,64.2313429 65.0957465,63.8368312 64.2406362,63.6585441 C62.3065216,63.2545188 60.7059717,64.3901574 60.3415733,66.3884443 C60.0438972,67.9727341 59.8500937,69.5738743 59.7613389,71.1821492 C59.5445686,75.5172308 59.3791877,79.8541323 59.2651964,84.1928538 C59.1250432,89.7918792 59.0129206,95.3854449 58.98489,100.98993 C58.9120103,111.437258 58.897995,121.881857 58.8643582,132.329185 L58.8643582,138.242149 L58.8643582,139.03928 C56.7676658,139.121177 54.7326409,139.265862 52.6976159,139.268591 C49.5077283,139.268591 46.3169063,139.218543 43.12515,139.118447 C41.9142261,139.077498 40.7117114,138.826348 39.5091966,138.668013 C38.3066819,138.509679 37.3620491,137.797175 36.5407511,136.975475 C32.7482046,133.186374 28.9192183,129.432761 25.2107637,125.567222 C21.1014709,121.286739 17.1099068,116.897059 13.0706906,112.553788 C12.9417496,112.414563 12.8212178,112.264418 12.6530339,112.067865 C13.5780453,110.908568 14.5011879,109.75109 15.4224618,108.595432 L39.6521529,78.3426776 L65.9084597,45.5674951 C67.0296856,44.1834357 68.13129,42.8021061 69.2216822,41.4043972 C69.4308163,41.0873899 69.8033637,40.909659 70.1887395,40.943044 C75.5463304,41.0740793 80.9048557,41.1878251 86.2643154,41.2842816 C89.5551133,41.3388796 92.8459113,41.4316962 96.1339061,41.3361497 C100.899116,41.1969248 105.664326,40.9403141 110.429536,40.6454849 C111.831068,40.5581281 113.232601,40.2660288 114.620118,40.6782437 C115.108404,40.7950769 115.572818,40.9916855 115.993619,41.2597125 C118.953656,43.4245234 121.459595,46.0506874 123.895459,48.7369093 C132.584959,58.3133994 140.43354,68.531416 148.021436,78.9350659 C155.511225,89.1994909 162.787981,99.6086006 170.165647,109.944003 C170.538455,110.468144 170.504818,110.779352 170.117995,111.278924 C163.243012,120.136541 156.378306,129.000527 149.523879,137.870883 C149.323672,138.127724 149.03325,138.303649 148.708187,138.364995 C141.807042,139.085688 134.911503,139.86371 127.965509,139.880089 L126.275261,139.874629 Z M91.1192234,45.788617 C89.0449556,46.0315781 86.9482632,46.1626133 84.8992229,46.5366097 C80.4479562,47.3555798 76.58253,49.291079 73.4991589,52.5833387 C70.903521,55.3541875 70.7269279,58.4280552 73.0562746,61.1770648 C74.4468548,62.8130591 76.2420101,64.0775461 78.272778,64.8515105 C80.0106781,65.5257959 81.7962303,66.0854254 83.5201151,66.7870098 C86.7015935,68.0782526 89.8550412,69.4377429 93.0281105,70.7535549 C93.2231502,70.8120071 93.4333602,70.7993938 93.6195571,70.7180661 C97.4159247,69.1781435 101.088823,67.3640784 104.607571,65.2910244 C106.953736,63.8823959 109.218612,62.3591116 111.054619,60.322606 C113.106463,58.0540589 113.325102,56.10764 111.727355,53.5224244 C110.084759,50.8662315 107.620865,49.1354747 104.677647,48.1499807 C100.30076,46.722513 95.7328247,45.9269518 91.1192234,45.788617 Z"></path>
                        <path d="M121.711871,134.876182 L63.7052509,133.382927 L63.7052509,132.47933 C63.7052509,123.953851 63.7052509,115.428373 63.7276754,106.902894 C63.7472969,101.656026 63.839798,96.4118874 63.9042685,91.167749 C63.9426054,90.8625261 63.961329,90.555269 63.9603298,90.2477726 C63.8986623,89.7454709 64.1257106,89.5543779 64.5910193,89.4015035 C68.0031591,88.2849907 71.5012479,87.4351206 75.0520567,86.8599664 C80.0028273,86.058011 85.0158607,85.6771183 90.0344374,85.721598 C98.1204242,85.7753245 106.180775,86.6139098 114.095945,88.2249165 C116.338396,88.6780799 118.550014,89.2186002 120.778451,89.6990626 C121.30823,89.8137184 121.498838,90.0512198 121.515657,90.6053895 C121.644598,95.134294 121.89407,99.6604687 121.950132,104.189373 C122.042633,111.560104 122.042633,118.906265 122.028618,126.263347 C122.028618,128.848562 121.86604,131.431048 121.776342,134.013534 C121.770736,134.275604 121.739902,134.532215 121.711871,134.876182 Z"></path>
                        <path d="M52.7396619,54.355044 L25.7489521,88.0556627 C25.7153153,87.5997693 25.6760724,87.3404288 25.6816786,87.0838182 C25.7769828,82.1508884 25.7545582,77.2124989 26.0068341,72.2850289 C26.3039589,66.4566918 27.2541978,60.6966023 28.3698176,54.9665417 C30.7384072,42.7174792 34.3067086,30.7577862 37.8553884,18.803553 C38.354334,17.1246643 38.6542619,15.3884477 39.1644197,13.712289 C39.3965996,12.9903146 39.7781858,12.3223165 40.2856455,11.7494907 C45.2414639,6.12589618 51.2680529,2.1047531 58.7858724,0.573279054 C62.2084143,-0.122845512 65.6954268,0.248420923 69.0619075,1.13836841 C71.7780772,1.85633217 74.4550039,2.72717036 77.101097,3.66898594 C81.2552388,5.14586198 85.3589255,6.76742274 89.8634504,7.33797189 L89.583144,29.996144 C87.7527427,29.9169769 85.9840089,29.8678387 84.2208812,29.7559128 C79.4780958,29.4583537 74.7381135,29.2754504 69.9981311,29.7941314 C66.354147,30.1926968 62.6849353,30.5039055 59.0465574,30.9952875 C54.4439252,31.6177048 49.8805359,32.4694337 45.5722255,34.2711678 C44.7456733,34.6158984 43.9513101,35.0296575 43.1980297,35.5078126 C40.6472409,37.1266435 39.8595797,39.0867119 40.4986784,41.9776762 C41.3395978,45.7995366 43.643717,48.6850412 46.7691341,50.9426687 C48.4369576,52.1492846 50.3374354,53.0474218 52.1341999,54.0793241 C52.3220052,54.1666809 52.4957952,54.2349284 52.7396619,54.355044 Z"></path>
                        <path d="M94.4268397,29.9060573 L94.7071462,7.4744669 C98.0708238,7.22331608 101.154195,6.20233338 104.184308,4.90017096 C106.146453,4.04844208 108.184281,3.29498961 110.219306,2.59067534 C114.017459,1.27759332 117.916522,0.384915936 121.964147,0.256610624 C124.641074,0.182903317 127.102165,0.963654791 129.490376,2.1484315 C136.865239,5.80103805 142.149016,11.3372758 145.142689,18.8172025 C146.193838,21.4433665 146.7993,24.277003 147.362716,27.0478517 C148.663338,33.4576575 149.92752,39.8783829 150.987079,46.3291373 C151.827998,51.425861 152.413839,56.5689931 152.968845,61.7039355 C153.591126,67.4558353 154.050828,73.2241146 154.577805,78.986934 C154.59182,79.1425383 154.577805,79.3036025 154.577805,79.4400975 L133.994901,52.741673 C134.42377,52.5533098 134.989989,52.3158085 135.550602,52.0591979 C138.569502,50.6696787 141.554766,49.2337511 144.08313,47.0498309 C146.984302,44.5437825 147.317867,41.3170404 144.938065,38.3332594 C143.169331,36.1220402 140.733468,34.8471768 138.13783,33.8261941 C134.367708,32.3465881 130.415387,31.5603769 126.415414,30.9980174 C120.723905,30.2068432 114.981821,29.8109187 109.232627,29.8132407 C104.436584,29.8132407 99.637737,29.8951377 94.8416933,29.941546 C94.7463891,29.9388161 94.6482818,29.9224367 94.4268397,29.9060573 Z"></path>
                        <path d="M146.608692,7.72834763 C147.766357,7.63826092 148.769855,7.54817421 149.773352,7.4826566 C154.022798,7.20966658 158.272244,6.91210745 162.52169,6.66368653 C165.462105,6.49716261 168.408126,6.3906965 171.348541,6.30060979 C173.366747,6.23782209 175.387757,6.25420149 177.408766,6.22144268 C178.092714,6.22144268 178.48234,6.4152656 178.664539,7.14414897 C179.819402,11.7849794 181.02472,16.4258098 182.218825,21.0529908 C183.480204,25.9395122 184.721962,30.8314935 186.62244,35.5351116 C186.846991,36.0580557 187.043471,36.592017 187.211084,37.1348332 C187.443738,37.9538033 187.314797,38.3277996 186.48509,38.562571 C185.397501,38.8683199 184.242638,39.1740687 183.141034,39.1522295 C181.178888,39.1167408 179.216743,38.8574003 177.271416,38.6362783 C176.893606,38.5515012 176.551928,38.3550873 176.293147,38.0739189 C172.881817,34.7543602 169.43685,31.4675603 166.10681,28.0715643 C161.313569,23.1932326 156.596011,18.227544 151.867241,13.2864245 C150.148962,11.4901502 148.441896,9.66930671 146.608692,7.72834763 Z"></path>
                        <path d="M34.9598226,7.34343169 C33.5162443,9.45364459 32.156758,11.4710409 30.7552256,13.4638681 C26.4945673,19.5624652 22.191863,25.6337634 17.3649857,31.3256054 C15.601858,33.4057894 13.7210016,35.4204558 11.7588563,37.3068169 C9.3398115,39.6408816 5.59211403,39.9520903 2.67132064,38.2513624 C0.148562428,36.7963256 -4.94049246e-15,36.5178757 0.476520995,33.7306476 C1.95114976,25.2574455 4.30662644,16.9522323 7.5066072,8.94315324 C7.68880641,8.4790702 7.90183932,8.02590675 8.10926611,7.57820311 C8.65306065,6.4016161 8.65306065,6.431645 9.99292557,6.49989251 C13.3229664,6.66641643 16.6530072,6.83840014 19.9858511,6.94213635 C24.2465094,7.07590147 28.5071678,7.13868917 32.7678261,7.23969548 C33.4517738,7.25061508 34.1301155,7.30248319 34.9598226,7.34343169 Z"></path>
                        <path d="M163.965268,32.7724526 C162.44881,34.2138399 160.881897,35.5487611 159.519608,37.0392867 C158.157318,38.5298122 156.952,40.1814019 155.631757,41.819342 C154.31712,34.0855346 152.870738,26.4227046 150.566619,18.8881799 L163.965268,32.7724526 Z"></path>
                        <path d="M64.0107849,84.5204418 L64.6386714,69.7325722 L64.8713258,69.6861639 C68.2350034,73.5735418 70.9455669,77.9004337 73.6477213,82.2245957 L64.0107849,84.5204418 Z"></path>
                        <polygon points="32.6192636 19.3549928 26.7132064 40.1213441 21.2472302 34.4103927"></polygon>
                        <polygon points="121.240956 84.9408465 114.474358 83.4448611 119.822606 72.4106043 120.133746 72.4515528"></polygon>
                    </g>
                    <path d="M95.8844334,50.4294474 C100.500726,50.5661041 105.07155,51.3607552 109.451266,52.7880813 C112.394484,53.7735753 114.858378,55.5179815 116.500974,58.160525 C118.098721,60.7430106 117.880082,62.6894295 115.828239,64.9607065 C113.986625,66.9972121 111.721749,68.5095768 109.38119,69.929125 C105.862442,72.0021789 102.189544,73.816244 98.3931762,75.3561667 C98.2069793,75.4374943 97.9967694,75.4501076 97.8017296,75.3916554 C94.6286604,74.0758435 91.4752126,72.7163531 88.2937342,71.4251103 C86.5670464,70.7262559 84.7814942,70.1666263 83.0463971,69.489611 C81.0159365,68.7164179 79.2208108,67.4528912 77.8298938,65.8178952 C75.500547,63.0688856 75.6771401,59.9950179 78.272778,57.2241692 C81.3561492,53.9319095 85.2187723,51.9882205 89.672842,51.1774401 C91.7134731,50.8034438 93.8073624,50.6696787 95.8844334,50.4294474 Z" fill="#003A7E"></path>
                    <path d="M168.853813,145.716616 C168.890336,147.010187 168.117742,148.196111 166.90048,148.714963 C165.683219,149.233814 164.264478,148.981935 163.313508,148.078143 C162.362539,147.17435 162.069328,145.799206 162.572189,144.601396 C163.075051,143.403586 164.273522,142.622411 165.602258,142.626369 C166.455994,142.610281 167.280711,142.928219 167.891836,143.509027 C168.502962,144.089835 168.849471,144.885019 168.853813,145.716616 Z M163.14397,145.716616 C163.126462,146.365713 163.380421,146.993898 163.847619,147.457136 C164.314817,147.920375 164.955178,148.178933 165.621879,148.173526 C166.280828,148.171031 166.910488,147.908043 167.366559,147.444833 C167.82263,146.981623 168.06601,146.357904 168.040924,145.716616 C168.040924,144.351666 167.015003,143.229677 165.602258,143.229677 C164.934172,143.231491 164.295415,143.497148 163.832072,143.965891 C163.368728,144.434635 163.120433,145.066369 163.14397,145.716616 Z M165.106116,147.338177 L164.371713,147.338177 L164.371713,144.2452 C164.774105,144.175604 165.182404,144.143609 165.591046,144.149653 C165.97396,144.119174 166.357705,144.197903 166.695453,144.376235 C166.898979,144.545395 167.012444,144.795533 167.00379,145.05598 C166.974842,145.411734 166.705073,145.704647 166.34507,145.771214 L166.34507,145.809433 C166.667007,145.936328 166.890362,146.226361 166.925305,146.562885 C166.957038,146.831445 167.035725,147.092736 167.157959,147.335447 L166.364692,147.335447 C166.242228,147.098058 166.157182,146.844058 166.112416,146.581994 C166.053551,146.243487 165.86014,146.090612 165.453696,146.090612 L165.106116,146.090612 L165.106116,147.338177 Z M165.125737,145.585581 L165.473317,145.585581 C165.879761,145.585581 166.20772,145.454545 166.20772,145.132417 C166.20772,144.810289 165.994687,144.660145 165.529378,144.660145 C165.392835,144.657535 165.256442,144.67036 165.122934,144.698363 L165.125737,145.585581 Z" fill="#231F20"></path>
                </g>
            </g>
        </g>
    </g>
</svg>